<svg width="1780" height="1995" viewBox="0 0 1780 1995" fill="none" xmlns="http://www.w3.org/2000/svg">
<path d="M550.904 270.852C550.904 289.324 694.526 394.741 766.714 451.39C767.668 452.138 766.63 453.699 765.538 453.173C713.505 428.156 597.694 386.429 536.5 399C471.299 412.394 366.405 454.433 314.905 487.353C153.305 625.753 74.2384 1344.02 54.9053 1685.85L45.405 1772.35C40.5716 1806.02 33.805 1873.35 45.405 1873.35C59.905 1873.35 218.905 1921.35 242.905 1921.35C261.225 1921.35 343.818 1645.18 365.252 1558.61C365.792 1556.43 368.583 1556.73 368.648 1558.98C370.795 1633.32 342.637 1885.15 367.905 1921.35C401.405 1969.35 1306.4 1964.85 1387.9 1921.35C1450.23 1888.09 1429.73 1627.96 1423.73 1556.18C1423.63 1555 1425.32 1554.81 1425.69 1555.94L1540.77 1917.8C1541.41 1919.8 1543.49 1920.97 1545.53 1920.47L1654.32 1894C1696.24 1883.8 1722.99 1842.76 1715.4 1800.29C1712.16 1782.19 1715.13 1763.54 1723.81 1747.34L1728.91 1737.83C1738.67 1719.63 1742.47 1698.18 1739.91 1677.69C1602.47 578.039 1502.51 535.865 1461.91 485.353C1417.65 430.309 1343.7 380.861 1176.58 391.939C1164.57 392.735 1152.85 396.029 1142 401.252L1033.6 453.46C1032.49 453.994 1031.59 452.444 1032.59 451.739L1229.4 314.352C1243.74 216.519 1194.5 24.6523 882.904 39.8523C493.404 58.8523 550.904 246.852 550.904 270.852Z" stroke="black" stroke-width="77"/>
<line x1="67.6705" y1="1682.17" x2="318.67" y2="1733.17" stroke="black" stroke-width="67"/>
<path d="M1479.62 1753.55L1729.71 1677" stroke="black" stroke-width="67"/>
</svg>
