<svg width="1780" height="1995" viewBox="0 0 1780 1995" fill="none" xmlns="http://www.w3.org/2000/svg">
<path d="M550.904 270.852C550.904 289.323 691.271 393.803 763.218 450.384C764.171 451.134 763.328 452.317 762.29 451.691C713.96 422.545 628.548 347.792 567.405 360.353C502.205 373.746 366.405 454.433 314.905 487.353C153.305 625.753 74.2384 1344.02 54.9053 1685.85L45.405 1772.35C40.5716 1806.02 33.805 1873.35 45.405 1873.35C59.905 1873.35 218.905 1921.35 242.905 1921.35C261.131 1921.35 295.216 1794.3 312.314 1721.1C312.825 1718.91 316.056 1719.11 316.349 1721.33C324.014 1779.53 342.859 1885.47 367.905 1921.35C401.405 1969.35 1306.4 1964.85 1387.9 1921.35C1450.47 1887.96 1465.4 1775.45 1462.38 1716.94C1462.32 1715.78 1464.02 1715.44 1464.43 1716.53L1540.65 1918.05C1541.37 1919.93 1543.38 1920.99 1545.34 1920.52L1654.32 1894C1696.24 1883.8 1722.99 1842.76 1715.4 1800.29C1712.16 1782.19 1715.13 1763.54 1723.81 1747.34L1728.91 1737.83C1738.67 1719.63 1742.47 1698.18 1739.91 1677.69C1602.47 578.039 1502.51 535.865 1461.91 485.353C1417.65 430.309 1343.7 380.861 1176.58 391.939C1164.57 392.735 1152.85 396.029 1142 401.252L1033.6 453.46C1032.49 453.994 1031.59 452.444 1032.59 451.739L1229.4 314.352C1243.74 216.519 1194.5 24.6523 882.904 39.8523C493.404 58.8523 550.904 246.852 550.904 270.852Z" stroke="black" stroke-width="77"/>
<line x1="57.6705" y1="1731.17" x2="308.67" y2="1782.17" stroke="black" stroke-width="67"/>
<line x1="1452.09" y1="1782.45" x2="1736.09" y2="1713.45" stroke="black" stroke-width="67"/>
</svg>
