<svg width="1780" height="1995" viewBox="0 0 1780 1995" fill="none" xmlns="http://www.w3.org/2000/svg">
<path d="M418.304 894V884.55L425.504 882.3C431.804 879.9 436.004 876.75 438.104 872.85C440.504 868.95 441.704 863.7 441.704 857.1C442.004 840 442.154 822.9 442.154 805.8C442.154 788.4 442.154 771 442.154 753.6V737.4C442.154 720 442.004 702.75 441.704 685.65C441.704 668.25 441.704 650.85 441.704 633.45C441.704 626.25 440.654 620.85 438.554 617.25C436.454 613.35 432.104 610.35 425.504 608.25L418.304 606V596.55H545.204C581.204 596.55 607.304 603.3 623.504 616.8C639.704 630 647.804 646.8 647.804 667.2C647.804 682.8 642.104 696.9 630.704 709.5C619.304 721.8 599.354 730.65 570.854 736.05C603.854 739.65 627.704 748.2 642.404 761.7C657.104 775.2 664.454 791.7 664.454 811.2C664.454 820.8 662.354 830.55 658.154 840.45C653.954 850.05 646.754 858.9 636.554 867C626.654 875.1 613.154 881.7 596.054 886.8C578.954 891.6 557.354 894 531.254 894H418.304ZM506.054 732.9H527.204C547.604 732.9 562.304 728.4 571.304 719.4C580.604 710.1 585.254 694.35 585.254 672.15C585.254 649.05 581.054 632.85 572.654 623.55C564.254 614.25 551.054 609.6 533.054 609.6H506.054V732.9ZM506.054 880.95H530.804C553.304 880.95 570.104 875.4 581.204 864.3C592.304 853.2 597.854 835.35 597.854 810.75C597.854 787.05 592.454 770.4 581.654 760.8C571.154 750.9 553.754 745.95 529.454 745.95H506.054V880.95ZM745.05 900.3C733.35 900.3 722.7 898.2 713.1 894C703.5 889.5 695.85 882.3 690.15 872.4C684.75 862.2 682.2 848.85 682.5 832.35L683.85 719.4C683.85 712.8 682.8 708 680.7 705C678.6 702 674.85 699.9 669.45 698.7L664.05 696.9V688.8L741 673.95L745.95 678.9L743.7 742.35V844.5C743.7 854.7 746.4 862.2 751.8 867C757.5 871.5 764.55 873.75 772.95 873.75C781.65 873.75 789.45 872.55 796.35 870.15C803.55 867.45 810.9 863.55 818.4 858.45L819.75 719.85C819.75 712.95 818.7 708.15 816.6 705.45C814.8 702.75 811.2 700.65 805.8 699.15L800.85 697.8V689.7L876 673.95L880.95 678.9L879.6 742.35V860.25C879.6 866.55 880.35 871.65 881.85 875.55C883.65 879.15 887.4 881.85 893.1 883.65L898.95 885.45V894L822.9 898.5L818.85 870.15C808.65 878.85 797.55 886.05 785.55 891.75C773.55 897.45 760.05 900.3 745.05 900.3ZM955.885 646.5C945.985 646.5 937.585 643.35 930.685 637.05C923.785 630.75 920.335 622.8 920.335 613.2C920.335 603.3 923.785 595.35 930.685 589.35C937.585 583.05 945.985 579.9 955.885 579.9C965.785 579.9 974.185 583.05 981.085 589.35C987.985 595.35 991.435 603.3 991.435 613.2C991.435 622.8 987.985 630.75 981.085 637.05C974.185 643.35 965.785 646.5 955.885 646.5ZM904.135 894V885.45L910.885 883.65C916.885 881.85 920.935 879.15 923.035 875.55C925.135 871.95 926.335 867.15 926.635 861.15V778.35C926.635 769.05 926.635 760.5 926.635 752.7C926.635 744.6 926.485 736.35 926.185 727.95C926.185 721.95 924.985 717.3 922.585 714C920.485 710.4 916.435 708 910.435 706.8L904.135 705.45V697.35L982.885 671.25L988.285 676.2L986.935 740.1V861.6C986.935 867.6 987.985 872.4 990.085 876C992.485 879.6 996.535 882.3 1002.24 884.1L1007.19 885.45V894H904.135ZM1014.57 894V885.45L1021.32 883.65C1031.22 880.35 1036.17 872.85 1036.17 861.15C1036.17 850.95 1036.17 840.75 1036.17 830.55C1036.47 820.05 1036.62 809.7 1036.62 799.5V628.5C1036.62 622.2 1035.57 617.55 1033.47 614.55C1031.37 611.25 1027.32 608.85 1021.32 607.35L1014.57 605.55V597L1093.32 578.1L1099.17 582.15L1097.37 645.6V861.15C1097.67 867.15 1098.87 872.1 1100.97 876C1103.37 879.6 1107.42 882.15 1113.12 883.65L1119.42 885.45V894H1014.57ZM1220.79 900.3C1203.09 900.3 1187.19 896.4 1173.09 888.6C1158.99 880.5 1147.89 868.2 1139.79 851.7C1131.99 834.9 1128.09 813.6 1128.09 787.8C1128.09 762 1132.59 740.55 1141.59 723.45C1150.59 706.05 1162.59 693 1177.59 684.3C1192.59 675.6 1209.09 671.25 1227.09 671.25C1237.89 671.25 1248.24 672.6 1258.14 675.3C1268.04 677.7 1276.74 681.45 1284.24 686.55V628.05C1284.24 621.75 1283.19 617.25 1281.09 614.55C1279.29 611.55 1275.39 609.3 1269.39 607.8L1260.39 606V597.45L1338.69 578.1L1344.54 582.15L1342.74 645.6V862.05C1342.74 867.75 1343.79 872.55 1345.89 876.45C1347.99 880.05 1351.74 882.6 1357.14 884.1L1362.09 885.45V894L1287.39 898.95L1283.34 880.05C1275.24 886.35 1265.94 891.3 1255.44 894.9C1244.94 898.5 1233.39 900.3 1220.79 900.3ZM1245.54 879.6C1258.44 879.6 1270.59 875.4 1281.99 867V699.6C1270.89 692.7 1258.89 689.25 1245.99 689.25C1231.29 689.25 1218.69 697.05 1208.19 712.65C1197.69 727.95 1192.44 752.7 1192.44 786.9C1192.44 821.1 1197.39 845.1 1207.29 858.9C1217.19 872.7 1229.94 879.6 1245.54 879.6ZM722.915 1291V1281.55L740.915 1277.95C753.515 1275.25 759.815 1267.9 759.815 1255.9V1133.05C759.815 1112.05 759.815 1091.05 759.815 1070.05C759.815 1049.05 759.665 1028.05 759.365 1007.05H723.815C714.215 1007.05 707.165 1009.6 702.665 1014.7C698.165 1019.8 693.665 1027 689.165 1036.3L673.415 1069.6H660.815L663.065 993.55H921.365L923.615 1069.6H911.015L895.265 1036.3C890.765 1027 886.265 1019.8 881.765 1014.7C877.265 1009.6 870.215 1007.05 860.615 1007.05H824.615V1255.9C824.615 1268.2 830.915 1275.55 843.515 1277.95L861.965 1281.55V1291H722.915ZM1007.24 1297.3C985.038 1297.3 965.538 1292.65 948.738 1283.35C932.238 1274.05 919.338 1260.85 910.038 1243.75C901.038 1226.65 896.538 1206.25 896.538 1182.55C896.538 1158.85 901.338 1138.45 910.938 1121.35C920.838 1104.25 934.038 1091.2 950.538 1082.2C967.338 1072.9 986.238 1068.25 1007.24 1068.25C1028.24 1068.25 1046.99 1072.9 1063.49 1082.2C1080.29 1091.2 1093.49 1104.25 1103.09 1121.35C1112.99 1138.15 1117.94 1158.55 1117.94 1182.55C1117.94 1206.25 1113.29 1226.8 1103.99 1244.2C1094.99 1261.3 1082.24 1274.5 1065.74 1283.8C1049.24 1292.8 1029.74 1297.3 1007.24 1297.3ZM1007.24 1284.7C1018.04 1284.7 1026.74 1281.85 1033.34 1276.15C1040.24 1270.15 1045.19 1259.8 1048.19 1245.1C1051.19 1230.4 1052.69 1209.85 1052.69 1183.45C1052.69 1156.75 1051.19 1136.05 1048.19 1121.35C1045.19 1106.35 1040.24 1096 1033.34 1090.3C1026.74 1084.3 1018.04 1081.3 1007.24 1081.3C996.438 1081.3 987.738 1084.3 981.138 1090.3C974.538 1096 969.588 1106.35 966.288 1121.35C963.288 1136.05 961.788 1156.75 961.788 1183.45C961.788 1209.85 963.288 1230.4 966.288 1245.1C969.588 1259.8 974.538 1270.15 981.138 1276.15C987.738 1281.85 996.438 1284.7 1007.24 1284.7ZM507.205 1689.8L429.355 1424.75C427.255 1418.15 424.855 1413.2 422.155 1409.9C419.455 1406.6 414.955 1403.9 408.655 1401.8L403.255 1400V1390.55H519.355V1400L509.905 1403.15C503.005 1405.25 498.505 1408.25 496.405 1412.15C494.605 1416.05 494.605 1421.45 496.405 1428.35L545.455 1612.85L599.005 1453.1L590.905 1427C588.805 1420.7 586.705 1415.9 584.605 1412.6C582.505 1409 579.055 1406.15 574.255 1404.05L564.355 1400V1390.55H674.605V1400L662.005 1404.05C656.005 1406.15 652.555 1409.15 651.655 1413.05C650.755 1416.95 651.355 1422.2 653.455 1428.8L710.155 1615.55L762.355 1431.5C764.455 1424.6 765.055 1418.6 764.155 1413.5C763.255 1408.4 759.355 1404.8 752.455 1402.7L743.455 1400V1390.55H810.056V1400L798.805 1403.6C792.805 1405.7 788.455 1408.85 785.755 1413.05C783.355 1416.95 781.255 1422.2 779.455 1428.8L705.655 1689.8H674.605L608.005 1480.1L538.255 1689.8H507.205ZM880.333 1465.25C899.233 1465.25 915.433 1469.15 928.933 1476.95C942.433 1484.75 952.783 1495.55 959.983 1509.35C967.483 1522.85 971.233 1538.45 971.233 1556.15C971.233 1560.05 971.083 1563.8 970.783 1567.4C970.483 1570.7 969.883 1573.85 968.983 1576.85H833.533C833.833 1607.75 839.533 1629.95 850.633 1643.45C862.033 1656.95 878.533 1663.7 900.133 1663.7C915.133 1663.7 927.283 1661.3 936.583 1656.5C945.883 1651.4 954.433 1644.35 962.233 1635.35L969.433 1642.1C960.433 1658.6 948.133 1671.5 932.533 1680.8C917.233 1689.8 898.933 1694.3 877.633 1694.3C856.333 1694.3 837.583 1689.8 821.383 1680.8C805.183 1671.8 792.433 1658.9 783.133 1642.1C774.133 1625 769.633 1604.6 769.633 1580.9C769.633 1556.3 774.883 1535.45 785.383 1518.35C796.183 1501.25 809.983 1488.2 826.783 1479.2C843.883 1469.9 861.733 1465.25 880.333 1465.25ZM878.083 1478.3C869.383 1478.3 861.733 1480.85 855.133 1485.95C848.833 1490.75 843.733 1499.45 839.833 1512.05C836.233 1524.35 834.133 1541.75 833.533 1564.25H914.083C917.383 1533.95 916.183 1512.05 910.483 1498.55C904.783 1485.05 893.983 1478.3 878.083 1478.3ZM1043.7 1694.3C1026.6 1694.3 1012.05 1689.5 1000.05 1679.9C988.354 1670 982.504 1655.9 982.504 1637.6C982.504 1623.2 989.404 1610 1003.2 1598C1017.3 1585.7 1039.35 1576.7 1069.35 1571C1074.45 1569.8 1080.3 1568.75 1086.9 1567.85C1093.8 1566.65 1100.55 1565.45 1107.15 1564.25V1532.3C1107.15 1511.9 1104.6 1497.8 1099.5 1490C1094.4 1482.2 1086.3 1478.3 1075.2 1478.3H1073.85C1066.95 1478.3 1061.4 1480.55 1057.2 1485.05C1053.3 1489.25 1050.75 1496.3 1049.55 1506.2L1048.2 1512.05C1047.3 1524.05 1044.15 1532.9 1038.75 1538.6C1033.35 1544 1026.6 1546.7 1018.5 1546.7C1011 1546.7 1004.7 1544.45 999.604 1539.95C994.804 1535.15 992.404 1529 992.404 1521.5C992.404 1509.2 996.604 1498.85 1005 1490.45C1013.4 1482.05 1024.5 1475.75 1038.3 1471.55C1052.4 1467.35 1067.55 1465.25 1083.75 1465.25C1110.45 1465.25 1130.85 1471.7 1144.95 1484.6C1159.05 1497.5 1166.1 1518.5 1166.1 1547.6V1647.95C1166.1 1660.85 1172.25 1667.3 1184.55 1667.3H1194.9L1199.4 1672.25C1194 1679.15 1188 1684.4 1181.4 1688C1174.8 1691.9 1165.8 1693.85 1154.4 1693.85C1141.5 1693.85 1131.15 1690.85 1123.35 1684.85C1115.85 1678.55 1110.9 1670.3 1108.5 1660.1C1098.9 1670.3 1089.45 1678.55 1080.15 1684.85C1070.85 1691.15 1058.7 1694.3 1043.7 1694.3ZM1069.8 1665.5C1075.8 1665.5 1081.5 1664.15 1086.9 1661.45C1092.3 1658.75 1099.05 1654.25 1107.15 1647.95V1575.95C1099.35 1577.15 1091.4 1578.65 1083.3 1580.45C1070.4 1583.45 1059.9 1589 1051.8 1597.1C1044 1605.2 1040.1 1616.15 1040.1 1629.95C1040.1 1641.95 1042.8 1650.95 1048.2 1656.95C1053.9 1662.65 1061.1 1665.5 1069.8 1665.5ZM1194.79 1688V1679.45L1201.54 1677.2C1207.54 1675.7 1211.59 1673.15 1213.69 1669.55C1216.09 1665.95 1217.29 1661.15 1217.29 1655.15V1523.3C1216.99 1516.7 1215.79 1511.75 1213.69 1508.45C1211.59 1504.85 1207.54 1502.45 1201.54 1501.25L1194.79 1499.45V1491.35L1268.14 1465.25L1273.54 1470.2L1277.59 1509.8V1512.95C1282.09 1504.55 1287.79 1496.75 1294.69 1489.55C1301.59 1482.35 1309.09 1476.5 1317.19 1472C1325.29 1467.5 1333.39 1465.25 1341.49 1465.25C1352.89 1465.25 1361.44 1468.25 1367.14 1474.25C1372.84 1480.25 1375.69 1487.9 1375.69 1497.2C1375.69 1507.4 1372.84 1515.2 1367.14 1520.6C1361.44 1525.7 1354.54 1528.25 1346.44 1528.25C1334.44 1528.25 1324.09 1522.85 1315.39 1512.05L1314.49 1511.15C1311.49 1507.55 1308.04 1505.6 1304.14 1505.3C1300.54 1504.7 1296.94 1506.5 1293.34 1510.7C1290.34 1513.7 1287.49 1517.3 1284.79 1521.5C1282.39 1525.4 1280.14 1530.05 1278.04 1535.45V1653.35C1278.04 1659.05 1279.24 1663.85 1281.64 1667.75C1284.04 1671.35 1288.09 1673.9 1293.79 1675.4L1307.29 1679.45V1688H1194.79Z" fill="black"/>
<path d="M550.904 270.852C550.904 289.323 691.271 393.803 763.218 450.384C764.171 451.134 763.328 452.317 762.29 451.691C713.96 422.545 628.548 347.792 567.405 360.353C502.205 373.746 366.405 454.433 314.905 487.353C153.305 625.753 74.2384 1344.02 54.9053 1685.85L45.405 1772.35C40.5716 1806.02 33.805 1873.35 45.405 1873.35C59.905 1873.35 218.905 1921.35 242.905 1921.35C261.131 1921.35 295.216 1794.3 312.314 1721.1C312.825 1718.91 316.056 1719.11 316.349 1721.33C324.014 1779.53 342.859 1885.47 367.905 1921.35C401.405 1969.35 1306.4 1964.85 1387.9 1921.35C1450.47 1887.96 1465.4 1775.45 1462.38 1716.94C1462.32 1715.78 1464.02 1715.44 1464.43 1716.53L1540.65 1918.05C1541.37 1919.93 1543.38 1920.99 1545.34 1920.52L1654.32 1894C1696.24 1883.8 1722.99 1842.76 1715.4 1800.29C1712.16 1782.19 1715.13 1763.54 1723.81 1747.34L1728.91 1737.83C1738.67 1719.63 1742.47 1698.18 1739.91 1677.69C1602.47 578.039 1502.51 535.865 1461.91 485.353C1417.65 430.309 1343.7 380.861 1176.58 391.939C1164.57 392.735 1152.85 396.029 1142 401.252L1033.6 453.46C1032.49 453.994 1031.59 452.444 1032.59 451.739L1229.4 314.352C1243.74 216.519 1194.5 24.6523 882.904 39.8523C493.404 58.8523 550.904 246.852 550.904 270.852Z" stroke="black" stroke-width="77"/>
<line x1="57.6705" y1="1731.17" x2="308.67" y2="1782.17" stroke="black" stroke-width="67"/>
<line x1="1452.09" y1="1782.45" x2="1736.09" y2="1713.45" stroke="black" stroke-width="67"/>
</svg>
